<?xml version="1.0" encoding="utf-8"?>
<!-- Generated by IcoMoon.io -->
<!DOCTYPE svg PUBLIC "-//W3C//DTD SVG 1.1//EN" "http://www.w3.org/Graphics/SVG/1.1/DTD/svg11.dtd">
<svg version="1.1" xmlns="http://www.w3.org/2000/svg" xmlns:xlink="http://www.w3.org/1999/xlink" width="19" height="16" viewBox="0 0 19 16">
<path fill="#444" d="M7.632 1.632c-0.422 0.119-0.595 0.4-0.605 0.984 0 0.281-0.043 0.541-0.108 0.573-0.054 0.032-0.108 0.141-0.108 0.227 0 0.108 0.151 0.151 0.627 0.151 0.551 0 0.627-0.022 0.638-0.216 0.011-0.119-0.022-0.216-0.086-0.216-0.054 0-0.097-0.162-0.097-0.357v-0.357l1.395 0.011c0.768 0 1.427 0.032 1.47 0.065 0.119 0.119 0.151 0.519 0.043 0.584-0.054 0.043-0.097 0.162-0.097 0.281 0 0.173 0.076 0.205 0.595 0.205s0.595-0.022 0.595-0.216c0-0.119-0.043-0.216-0.097-0.216s-0.097-0.162-0.086-0.357c0.022-0.541-0.119-0.919-0.389-1.059-0.27-0.151-3.2-0.216-3.686-0.086z"></path>
<path fill="#444" d="M1.697 3.978c-0.508 0.065-0.584 0.335-0.573 2.13l0.011 1.622 0.746 0.184c0.919 0.227 3.114 0.595 4.119 0.681 0.422 0.032 0.984 0.086 1.276 0.119 0.508 0.043 0.595-0.022 0.519-0.432-0.054-0.27 0.249-0.335 1.524-0.324 1.351 0.011 1.622 0.054 1.589 0.292-0.065 0.519-0.065 0.519 1.87 0.346 1.438-0.13 4.508-0.703 4.735-0.886 0.022-0.022 0.054-0.8 0.054-1.719 0.011-1.47-0.022-1.697-0.184-1.849-0.173-0.151-0.984-0.173-7.784-0.184-4.184-0.011-7.73 0-7.903 0.022z"></path>
<path fill="#444" d="M8.616 8.411c-0.303 0.032-0.303 0.043-0.27 0.757l0.032 0.724 0.919 0.022c0.659 0.011 0.951-0.022 1.027-0.119 0.065-0.086 0.086-0.422 0.054-0.778l-0.054-0.616-0.703-0.011c-0.389-0.011-0.843 0-1.005 0.022z"></path>
<path fill="#444" d="M1.135 11.405c0 2.259 0.032 2.995 0.141 3.103s1.751 0.141 7.892 0.151c4.411 0 7.881-0.043 8.054-0.097 0.162-0.054 0.303-0.151 0.303-0.216 0.054-0.519 0.032-5.914-0.032-5.914-0.032 0-0.476 0.097-0.973 0.216-1.6 0.368-3.243 0.595-5.503 0.746-0.13 0.011-0.173 0.097-0.151 0.335 0.011 0.184-0.032 0.368-0.097 0.411-0.195 0.119-2.768 0.108-2.854-0.022-0.032-0.065-0.076-0.227-0.086-0.368-0.022-0.389 0.151-0.335-1.935-0.508-0.476-0.032-0.941-0.086-1.027-0.108s-0.378-0.065-0.649-0.097c-0.27-0.032-1.070-0.184-1.784-0.335s-1.297-0.27-1.297-0.27c0 0 0 1.341 0 2.973z"></path>
</svg>
