<?xml version="1.0" encoding="utf-8"?>
<!-- Generated by IcoMoon.io -->
<!DOCTYPE svg PUBLIC "-//W3C//DTD SVG 1.1//EN" "http://www.w3.org/Graphics/SVG/1.1/DTD/svg11.dtd">
<svg version="1.1" xmlns="http://www.w3.org/2000/svg" xmlns:xlink="http://www.w3.org/1999/xlink" width="1024" height="1024" viewBox="0 0 1024 1024">
<g id="icomoon-ignore">
</g>
<path d="M86.25 899c13 13.25 25 25.5 39.25 39.75 128.5-128.5 258-258 389-389 129 128.75 258.5 258.25 386.25 386 12-11.5 24-23.5 38-37-129-128.75-258.5-258.25-389-389 129.25-129.25 258.5-258.5 387-386.75-12.25-12.25-24.5-24.25-37.75-37.75-128.75 128.75-258 258.25-388.25 388.5-129.75-129.75-259-259-387.75-387.75-12.75 12.5-24.75 24.75-37.75 37.75 128.75 128.75 258.25 258.25 388.25 388-130 130-259.5 259.25-387.25 387.25z"></path>
</svg>
