<?xml version="1.0" encoding="UTF-8" standalone="no"?>
<svg width="20px" height="21px" viewBox="0 0 20 21" version="1.1" xmlns="http://www.w3.org/2000/svg" xmlns:xlink="http://www.w3.org/1999/xlink" xmlns:sketch="http://www.bohemiancoding.com/sketch/ns">
    <!-- Generator: Sketch 3.4.4 (17249) - http://www.bohemiancoding.com/sketch -->
    <title>google116 (1)</title>
    <desc>Created with Sketch.</desc>
    <defs></defs>
    <g id="Homepage-Design" stroke="none" stroke-width="1" fill="none" fill-rule="evenodd" sketch:type="MSPage">
        <g id="Desktop-Copy-10" sketch:type="MSArtboardGroup" transform="translate(-594.000000, -2581.000000)" fill="#498BD8">
            <g id="facebook55-(1)-+-twitter1-+-google116-(1)" sketch:type="MSLayerGroup" transform="translate(594.000000, 2580.000000)">
                <g id="google116-(1)" transform="translate(0.000000, 1.000000)" sketch:type="MSShapeGroup">
                    <g id="Group">
                        <path d="M12.9713314,0 L8.11010828,0 C5.94390415,0 4.44440249,0.474922888 3.09478785,1.58981279 C2.03336887,2.50555506 1.39992784,3.83643383 1.39992784,5.15005033 C1.39992784,7.17394601 2.9430062,9.32478251 5.80243775,9.32478251 C6.07737095,9.32478251 6.38177631,9.29657344 6.65039405,9.2715221 L6.61081714,9.36772766 C6.49587569,9.64308189 6.3870392,9.90285798 6.3870392,10.3083108 C6.3870392,11.0977438 6.76786167,11.584666 7.13605322,12.0551681 L7.18236662,12.114744 L7.10005508,12.1204279 C5.91927384,12.2012658 3.72149239,12.3519949 2.11610145,13.3386809 C0.219988661,14.4659912 0.0726278353,16.1059067 0.0726278353,16.5814611 C0.0726278353,18.4735741 1.83590537,20.3833704 5.77549177,20.3833704 C10.3563083,20.3833704 12.7532374,17.8561322 12.7532374,15.3598399 C12.7536584,13.5134087 11.6709774,12.6018767 10.5217734,11.6341372 L9.55234973,10.8800708 C9.25278622,10.631873 8.87975282,10.3230468 8.87975282,9.75086581 C8.87975282,9.18836849 9.25278622,8.81701921 9.58203241,8.48945715 L9.61634643,8.45472209 C10.6632398,7.63013302 11.849705,6.69523384 11.849705,4.67302229 C11.849705,2.63986393 10.5792442,1.58918124 9.96832828,1.08415464 L11.5815083,1.08415464 C11.6012967,1.08415464 11.6210852,1.07868124 11.6375054,1.06794495 L13.027118,0.194305774 C13.0666949,0.169254434 13.0852203,0.121046392 13.0721683,0.0759960828 C13.0597479,0.0309457733 13.0180658,0 12.9713314,0 L12.9713314,0 Z M7.07626683,19.2695331 C4.28398971,19.2695331 2.40787589,17.9653898 2.40787589,16.0242267 C2.40787589,14.756713 3.17520475,13.8357079 4.68649528,13.2881572 C5.89674868,12.8808097 7.45898395,12.8606003 7.47456209,12.8606003 C7.73918003,12.8606003 7.8722258,12.8606003 8.08358333,12.8871252 C10.0373774,14.2775798 10.9766974,15.0076475 10.9766974,16.3981021 C10.9764868,18.1693792 9.48182705,19.2695331 7.07626683,19.2695331 L7.07626683,19.2695331 Z M7.0499524,8.57976828 C4.70649424,8.57976828 3.7339128,5.49929548 3.7339128,3.84990682 C3.7339128,3.01121321 3.92463981,2.36745692 4.31704063,1.88137671 C4.74291342,1.34856207 5.47213899,1.00436928 6.17483961,1.00436928 C8.32651818,1.00436928 9.51635158,3.89643074 9.51635158,5.89527507 C9.51635158,6.21062724 9.51635158,7.16994621 8.8536489,7.83622766 C8.40798766,8.28104684 7.68318292,8.57976828 7.0499524,8.57976828 L7.0499524,8.57976828 Z" id="Shape"></path>
                        <path d="M19.7846644,9.52014086 L17.2231122,9.52014086 L17.2231122,6.96764085 C17.2231122,6.90953858 17.1757462,6.86238312 17.1178545,6.86238312 L16.0160166,6.86238312 C15.9579143,6.86238312 15.9107588,6.90953858 15.9107588,6.96764085 L15.9107588,9.52014086 L13.3620481,9.52014086 C13.3039458,9.52014086 13.2567904,9.56729632 13.2567904,9.62539859 L13.2567904,10.7419726 C13.2567904,10.7998644 13.3039458,10.8472303 13.3620481,10.8472303 L15.9107588,10.8472303 L15.9107588,13.4161506 C15.9107588,13.4740423 15.9579143,13.5214083 16.0160166,13.5214083 L17.1178545,13.5214083 C17.1757462,13.5214083 17.2231122,13.4740423 17.2231122,13.4161506 L17.2231122,10.8468093 L19.7846644,10.8468093 C19.8427667,10.8468093 19.8899221,10.7998644 19.8899221,10.7415516 L19.8899221,9.62539859 C19.8899221,9.56708581 19.8429772,9.52014086 19.7846644,9.52014086 L19.7846644,9.52014086 Z" id="Shape"></path>
                    </g>
                </g>
            </g>
        </g>
    </g>
</svg>