<?xml version="1.0" encoding="utf-8"?>
<!-- Generated by IcoMoon.io -->
<!DOCTYPE svg PUBLIC "-//W3C//DTD SVG 1.1//EN" "http://www.w3.org/Graphics/SVG/1.1/DTD/svg11.dtd">
<svg version="1.1" xmlns="http://www.w3.org/2000/svg" xmlns:xlink="http://www.w3.org/1999/xlink" width="521" height="512" viewBox="0 0 521 512">
<g id="icomoon-ignore">
</g>
<path d="M456.197 373.683c7.921 53.382 3.243 72.485-11.981 84.284-12.949 10.017-96.767 14.872-106.45 15.306-1.78-6.822-7.897-11.897-15.253-11.897l-61.036-6.817c-8.744 0-15.841 7.112-15.841 15.908v18.911c0 8.784 7.096 15.896 15.841 15.896l61.036-6.817c6.762 0 12.465-4.248 14.752-10.225 9.337-0.063 99.498-1.198 119.37-20.416 26.261-25.421 18.865-37.457 16.204-99.786 26.969-13.136 45.587-40.854 45.587-72.988 0-33.598-20.339-62.328-49.314-74.666-1.457-121.972-94.976-220.375-210.158-220.375-115.251 0-208.787 98.525-210.158 220.601-28.68 12.459-48.795 41.045-48.795 74.44 0 42.55 32.614 77.385 74.095 80.829 1.844 6.736 7.932 11.7 15.201 11.7h14.683c8.761 0 15.841-7.112 15.841-15.908v-155.553c0-8.773-7.079-15.891-15.841-15.891h-14.683c-8.076 0-14.695 6.123-15.639 13.998-2.477 0.214-4.896 0.561-7.304 0.989 5.19-103.443 89.422-185.696 192.601-185.696s187.376 82.218 192.612 185.626c-2.252-0.387-4.499-0.724-6.797-0.92-0.933-7.875-7.54-13.998-15.639-13.998h-14.706c-8.721 0-15.817 7.118-15.817 15.891v155.558c0 8.796 7.096 15.908 15.817 15.908h14.706c7.293 0 13.364-4.965 15.202-11.7l11.866-2.193zM73.466 361.027c-33.041-3.675-58.749-31.81-58.749-65.986 0-34.205 25.708-62.323 58.749-65.992v131.977zM444.959 361.033v-131.989c33.041 3.68 58.772 31.792 58.772 65.998 0 34.176-25.731 62.312-58.772 65.991v0z"></path>
<path d="M259.212 231.127c-30.276-65.702-135.746-30.739-108.939 54.598 14.389 42.434 43.651 61.24 108.939 108.558 65.298-47.318 94.549-66.13 108.938-108.558 26.797-85.331-78.663-120.3-108.938-54.597v0z"></path>
</svg>
