<?xml version="1.0" encoding="utf-8"?>
<!-- Generated by IcoMoon.io -->
<!DOCTYPE svg PUBLIC "-//W3C//DTD SVG 1.1//EN" "http://www.w3.org/Graphics/SVG/1.1/DTD/svg11.dtd">
<svg version="1.1" xmlns="http://www.w3.org/2000/svg" xmlns:xlink="http://www.w3.org/1999/xlink" width="14" height="16" viewBox="0 0 14 16">
<path fill="#444" d="M5.235 0.991c-1.052 0.27-2.026 1.13-2.6 2.287-0.322 0.661-0.33 0.687-0.33 1.67 0 1.2 0.157 1.73 0.826 2.913 0.713 1.235 0.922 1.765 1 2.548 0.061 0.583 0.165 0.861 0.391 0.983 0.096 0.052 0.174 0.165 0.174 0.252 0 0.157 0.2 0.391 0.27 0.322 0.017-0.017 0.313-0.061 0.643-0.096 0.339-0.035 0.704-0.070 0.826-0.087s0.53-0.061 0.913-0.087c1.061-0.096 1.357-0.339 1.478-1.27 0.070-0.504 0.365-1.435 0.626-1.965 0.139-0.278 0.417-0.817 0.609-1.2 0.522-1.017 0.635-1.47 0.609-2.513-0.017-0.835-0.035-0.93-0.339-1.539-0.452-0.913-1.078-1.557-1.913-1.948-0.635-0.304-0.73-0.322-1.696-0.357-0.678-0.017-1.183 0.017-1.487 0.087z"></path>
<path fill="#444" d="M7.565 12.026c-0.026 0.026-0.313 0.061-0.652 0.096-0.33 0.035-0.843 0.078-1.13 0.104-0.948 0.087-1.087 0.13-1.087 0.339 0 0.122 0.287 0.33 0.357 0.27 0.017-0.017 0.313-0.061 0.643-0.087 0.339-0.035 0.748-0.078 0.913-0.096s0.522-0.061 0.783-0.087c0.8-0.078 0.826-0.087 0.826-0.313 0-0.174-0.052-0.209-0.304-0.235-0.174-0.017-0.33-0.009-0.348 0.009z"></path>
<path fill="#444" d="M6.696 13.009c-2.078 0.226-2 0.209-1.957 0.452 0.017 0.078 0.035 0.174 0.035 0.209 0.009 0.043 0.139 0.052 0.296 0.026 0.148-0.017 0.496-0.061 0.757-0.078 2.357-0.226 2.383-0.235 2.417-0.47 0.017-0.104 0-0.2-0.043-0.209-0.226-0.043-0.609-0.026-1.504 0.070z"></path>
<path fill="#444" d="M6.696 13.878c-0.070 0.017-0.278 0.043-0.452 0.078-0.252 0.035-0.33 0.096-0.33 0.217 0 0.096 0.070 0.2 0.157 0.235 0.13 0.070 0.252 0.070 0.826 0.035 0.104-0.009 0.148-0.078 0.148-0.261 0-0.252-0.104-0.339-0.348-0.304z"></path>
</svg>
