<?xml version="1.0" encoding="utf-8"?>
<!-- Generated by IcoMoon.io -->
<!DOCTYPE svg PUBLIC "-//W3C//DTD SVG 1.1//EN" "http://www.w3.org/Graphics/SVG/1.1/DTD/svg11.dtd">
<svg version="1.1" xmlns="http://www.w3.org/2000/svg" xmlns:xlink="http://www.w3.org/1999/xlink" width="16" height="16" viewBox="0 0 16 16">
<path fill="#444" d="M7.642 0.015c-0.036 0.005-0.151 0.023-0.256 0.038-0.665 0.095-1.408 0.406-1.896 0.792-0.705 0.557-1.176 1.212-1.442 2.006-0.187 0.557-0.194 0.639-0.212 2.093l-0.015 1.301-0.077 0.018c-0.041 0.010-0.146 0.031-0.23 0.046-0.23 0.043-0.463 0.169-0.652 0.36-0.187 0.187-0.286 0.342-0.365 0.588l-0.056 0.166v3.681c0 3.527 0.003 3.688 0.049 3.854 0.125 0.455 0.445 0.8 0.889 0.961l0.187 0.066 4.368 0.008c4.358 0.005 4.371 0.005 4.575-0.049 0.281-0.072 0.432-0.158 0.631-0.355 0.192-0.194 0.302-0.381 0.371-0.631 0.046-0.166 0.049-0.335 0.049-3.854v-3.681l-0.056-0.166c-0.079-0.245-0.179-0.401-0.366-0.588-0.189-0.192-0.422-0.317-0.652-0.36-0.084-0.015-0.187-0.036-0.23-0.046l-0.077-0.018-0.015-1.301c-0.015-1.165-0.020-1.332-0.066-1.559-0.322-1.59-1.505-2.85-3.049-3.246-0.33-0.084-0.583-0.118-0.958-0.128-0.21-0.005-0.412-0.005-0.447 0.003zM8.728 1.49c1.094 0.317 1.858 1.189 2.032 2.318 0.013 0.092 0.026 0.672 0.026 1.309v1.145h-5.574l0.010-1.234c0.010-1.316 0.013-1.367 0.151-1.769 0.194-0.565 0.636-1.122 1.145-1.436 0.268-0.169 0.751-0.355 1.035-0.399 0.043-0.008 0.273-0.010 0.511-0.008 0.381 0.005 0.463 0.015 0.665 0.074zM12.166 11.118v3.476h-8.332v-6.952h8.332v3.476z"></path>
<path fill="#444" d="M7.681 9.091c-0.317 0.066-0.657 0.304-0.836 0.583-0.054 0.084-0.128 0.248-0.164 0.366-0.061 0.189-0.066 0.24-0.054 0.473 0.013 0.271 0.059 0.422 0.192 0.644 0.077 0.128 0.296 0.355 0.409 0.424l0.082 0.054v1.035l0.079 0.158c0.11 0.222 0.299 0.353 0.544 0.378 0.281 0.028 0.539-0.112 0.672-0.371l0.084-0.164v-1.038l0.084-0.054c0.11-0.069 0.33-0.296 0.406-0.424 0.133-0.222 0.179-0.373 0.192-0.644 0.013-0.233 0.008-0.284-0.054-0.473-0.118-0.373-0.332-0.636-0.68-0.833-0.153-0.084-0.465-0.158-0.657-0.156-0.066 0-0.202 0.018-0.302 0.041z"></path>
</svg>
