<?xml version="1.0" encoding="utf-8"?>
<!-- Generated by IcoMoon.io -->
<!DOCTYPE svg PUBLIC "-//W3C//DTD SVG 1.1//EN" "http://www.w3.org/Graphics/SVG/1.1/DTD/svg11.dtd">
<svg version="1.1" xmlns="http://www.w3.org/2000/svg" xmlns:xlink="http://www.w3.org/1999/xlink" width="638" height="512" viewBox="0 0 638 512">
<g id="icomoon-ignore">
</g>
<path d="M411.647 46.9h-15.56c-0.846 0-1.543 0.645-1.543 1.434v23.056c0 8.555 6.999 12.829 15.547 12.829h3.112c8.548 0 15.547-4.281 15.547-12.829v-23.056c0-0.788-0.697-1.434-1.543-1.434h-15.56z"></path>
<path d="M375.877 40.669h74.65c6.851 0 12.454-5.598 12.454-12.435v-12.441c0-6.844-5.604-12.441-12.454-12.441h-74.65c-6.851 0-12.454 5.598-12.454 12.441v12.441c0 6.844 5.604 12.435 12.454 12.435v0z"></path>
<path d="M439.545 73.649c0 7.076-7.677 19.906-27.899 19.906-20.216 0-27.899-13.998-27.899-19.906-105.344 13.681-186.728 103.692-186.728 212.774 0 118.529 96.099 214.627 214.627 214.627 118.541 0 214.633-96.099 214.633-214.633 0-109.076-81.377-199.086-186.735-212.768v0zM411.647 457.495c-94.491 0-171.077-76.587-171.077-171.077s76.587-171.090 171.077-171.090c94.491 0 171.077 76.594 171.077 171.090 0 94.491-76.587 171.077-171.077 171.077v0z"></path>
<path d="M417.871 268.261v-118.716h-9.323v118.716c-9.788 2.144-17.11 10.847-17.11 21.261 0 12.035 9.75 21.778 21.772 21.778s21.778-9.743 21.778-21.778c-0.007-10.414-7.341-19.118-17.116-21.261v0z"></path>
<path d="M431.152 256.175c0 0 5.572 1.666 9.265 5.359 3.693 3.687 6.127 10.034 6.127 10.034l37.344-37.338-15.38-15.393-37.358 37.338z"></path>
<path d="M5.488 279.702c0 8.548 6.999 15.553 15.553 15.553h133.127c8.548 0 15.553-7.005 15.553-15.553v0c0-8.555-7.006-15.56-15.553-15.56h-133.126c-8.555 0-15.553 7.005-15.553 15.56v0 0z"></path>
<path d="M98.803 124.049c0 8.555 6.999 15.553 15.553 15.553h96.215c8.555 0 15.553-6.999 15.553-15.553v0c0-8.555-6.999-15.553-15.553-15.553h-96.215c-8.555 0-15.553 6.999-15.553 15.553v0 0z"></path>
<path d="M98.803 435.096c0 8.562 6.999 15.553 15.553 15.553h96.215c8.555 0 15.553-6.993 15.553-15.553v0c0-8.548-6.999-15.547-15.553-15.547h-96.215c-8.555-0.007-15.553 6.993-15.553 15.547v0 0z"></path>
<path d="M39.708 358.89c0 8.548 6.992 15.547 15.547 15.547h113.228c8.548 0 15.547-6.999 15.547-15.547v0c0-8.555-6.999-15.553-15.547-15.553h-113.221c-8.562 0-15.553 6.999-15.553 15.553v0 0z"></path>
<path d="M39.708 200.868c0 8.555 6.992 15.553 15.547 15.553h113.228c8.548 0 15.547-6.999 15.547-15.553v0c0-8.548-6.999-15.553-15.547-15.553h-113.221c-8.562 0.006-15.553 7.006-15.553 15.553v0 0z"></path>
</svg>
