<?xml version="1.0" encoding="UTF-8" standalone="no"?>
<svg width="20px" height="17px" viewBox="0 0 20 17" version="1.1" xmlns="http://www.w3.org/2000/svg" xmlns:xlink="http://www.w3.org/1999/xlink" xmlns:sketch="http://www.bohemiancoding.com/sketch/ns">
    <!-- Generator: Sketch 3.4.4 (17249) - http://www.bohemiancoding.com/sketch -->
    <title>twitter1</title>
    <desc>Created with Sketch.</desc>
    <defs></defs>
    <g id="Homepage-Design" stroke="none" stroke-width="1" fill="none" fill-rule="evenodd" sketch:type="MSPage">
        <g id="Desktop-Copy-10" sketch:type="MSArtboardGroup" transform="translate(-634.000000, -2583.000000)" fill="#498BD8">
            <g id="facebook55-(1)-+-twitter1-+-google116-(1)" sketch:type="MSLayerGroup" transform="translate(594.000000, 2580.000000)">
                <g id="twitter1" transform="translate(40.000000, 3.000000)" sketch:type="MSShapeGroup">
                    <path d="M20.0052736,1.9384819 C19.2689685,2.26474433 18.4789238,2.48601177 17.6488358,2.58479596 C18.4964121,2.07724395 19.1452104,1.27219526 19.4527098,0.315864883 C18.6576637,0.785890672 17.7800796,1.12718974 16.8449966,1.3122058 C16.0962046,0.513400584 15.0311201,0.0158512045 13.8497631,0.0158512045 C11.583349,0.0158512045 9.74570801,1.85349219 9.74570801,4.11866411 C9.74570801,4.43992522 9.78195939,4.75370069 9.85197783,5.05374706 C6.441733,4.8824601 3.41776641,3.24859829 1.3938672,0.765885402 C1.04008118,1.37094677 0.838819012,2.0759691 0.838819012,2.82855299 C0.838819012,4.25242484 1.56387931,5.5087689 2.66397305,6.24379914 C1.99141024,6.22130956 1.35885798,6.03629349 0.805084634,5.72876149 L0.805084634,5.78001683 C0.805084634,7.76766465 2.22019601,9.42653305 4.09657269,9.8040835 C3.75278931,9.89659153 3.3902755,9.94784686 3.01524206,9.94784686 C2.75023761,9.94784686 2.49396094,9.92159812 2.24268559,9.87158494 C2.76520887,11.5029624 4.28034659,12.689288 6.07549273,12.721813 C4.67162615,13.8219067 2.9014866,14.4757064 0.978855904,14.4757064 C0.647592163,14.4757064 0.32129705,14.4557011 3.59437745e-05,14.4194497 C1.8164295,15.5858028 3.97284728,16.2658512 6.29051669,16.2658512 C13.8398258,16.2658512 17.9664032,10.012864 17.9664032,4.58996475 L17.9526414,4.05868099 C18.7589322,3.48359484 19.4564689,2.76105155 20.0052736,1.9384819 L20.0052736,1.9384819 Z" id="Shape"></path>
                </g>
            </g>
        </g>
    </g>
</svg>