<?xml version="1.0" encoding="utf-8"?>
<!-- Generated by IcoMoon.io -->
<!DOCTYPE svg PUBLIC "-//W3C//DTD SVG 1.1//EN" "http://www.w3.org/Graphics/SVG/1.1/DTD/svg11.dtd">
<svg version="1.1" xmlns="http://www.w3.org/2000/svg" xmlns:xlink="http://www.w3.org/1999/xlink" width="14" height="16" viewBox="0 0 14 16">
<path fill="#444" d="M6.927 0.862c-0.273 0.229-1.582 1.266-2.91 2.303s-2.453 1.952-2.506 2.031c-0.088 0.132 0.273 0.141 4.343 0.141h4.44l0.343-0.264c0.193-0.141 0.352-0.308 0.352-0.369 0-0.211-3.253-4.264-3.411-4.255-0.079 0-0.378 0.185-0.651 0.413zM7.631 1.644c0.123 0.237 0.053 0.334-0.668 0.879-0.369 0.281-0.73 0.563-0.791 0.615-0.325 0.308-0.765-0.070-0.475-0.396 0.29-0.334 1.538-1.248 1.697-1.248 0.088 0 0.193 0.070 0.237 0.149zM8.607 2.804c0.273 0.176-0.009 0.501-1.178 1.415-0.651 0.51-1.231 0.932-1.301 0.949-0.176 0.035-0.352-0.211-0.281-0.396 0.053-0.167 2.4-2.040 2.549-2.040 0.053-0.009 0.141 0.026 0.211 0.070z"></path>
<path fill="#444" d="M0.905 5.96c-0.053 0.009-0.079 7.314-0.035 8.325 0.009 0.176 0.062 0.176 5.521 0.158 3.042-0.009 5.582-0.018 5.67-0.018 0.123-0.009 0.141-0.158 0.141-1.327 0-0.721-0.026-1.319-0.062-1.327-0.026 0-0.624-0.009-1.327-0.026-1.125-0.018-1.31-0.044-1.582-0.211-0.501-0.308-0.738-0.738-0.738-1.336 0-0.448 0.035-0.563 0.264-0.853 0.492-0.607 0.703-0.677 2.101-0.694 0.677-0.009 1.257-0.018 1.284-0.026 0.035-0.009 0.062-0.607 0.062-1.327l0.009-1.319-0.237-0.009c-0.818-0.018-11.015-0.035-11.068-0.009z"></path>
<path fill="#444" d="M9.714 9.802c-0.123 0.114-0.22 0.29-0.22 0.396 0 0.097 0.097 0.281 0.22 0.396 0.343 0.352 0.782 0.273 0.967-0.167 0.193-0.448-0.105-0.835-0.642-0.844-0.062 0-0.211 0.097-0.325 0.22z"></path>
</svg>
