<?xml version="1.0" encoding="UTF-8" standalone="no"?>
<svg width="60px" height="105px" viewBox="0 0 60 105" version="1.1" xmlns="http://www.w3.org/2000/svg" xmlns:xlink="http://www.w3.org/1999/xlink" xmlns:sketch="http://www.bohemiancoding.com/sketch/ns">
    <!-- Generator: Sketch 3.5.2 (25235) - http://www.bohemiancoding.com/sketch -->
    <title>Group</title>
    <desc>Created with Sketch.</desc>
    <defs></defs>
    <g id="About-Us" stroke="none" stroke-width="1" fill="none" fill-rule="evenodd" sketch:type="MSPage">
        <g id="About-Us---A" sketch:type="MSArtboardGroup" transform="translate(-614.000000, -711.000000)" fill="#4888D4">
            <g id="Group" sketch:type="MSLayerGroup" transform="translate(614.000000, 711.000000)">
                <path d="M25.6361771,86.5902789 C25.4998144,86.5902789 25.2270891,86.5902789 25.0907265,86.4539162 C23.9998253,86.1811909 23.3180121,85.0902898 23.5907374,83.9993886 L32.3179466,51.2723541 C32.5906719,50.181453 33.681573,49.4996397 34.7724742,49.772365 C35.8633753,50.0450903 36.5451886,51.1359915 36.2724633,52.2268926 L27.5452541,84.9539272 C27.4088914,86.0448283 26.4543529,86.5902789 25.6361771,86.5902789 L25.6361771,86.5902789 Z" id="Shape" sketch:type="MSShapeGroup"></path>
                <path d="M39.5451667,86.5902789 C35.4542874,86.5902789 32.0452213,83.4539381 32.0452213,79.4994214 L32.0452213,75.1358168 C32.0452213,71.3176628 35.4542874,68.0449593 39.5451667,68.0449593 C43.636046,68.0449593 47.0451121,71.1813001 47.0451121,75.1358168 L47.0451121,79.4994214 C47.0451121,83.4539381 43.636046,86.5902789 39.5451667,86.5902789 L39.5451667,86.5902789 Z M39.5451667,72.2722013 C37.6360897,72.2722013 36.1361006,73.6358277 36.1361006,75.2721794 L36.1361006,79.635784 C36.1361006,81.2721358 37.6360897,82.6357622 39.5451667,82.6357622 C41.4542437,82.6357622 42.9542328,81.2721358 42.9542328,79.635784 L42.9542328,75.2721794 C42.9542328,73.6358277 41.4542437,72.2722013 39.5451667,72.2722013 L39.5451667,72.2722013 Z" id="Shape" sketch:type="MSShapeGroup"></path>
                <path d="M20.4543966,68.181322 C16.3635173,68.181322 12.9544512,65.0449811 12.9544512,61.0904645 L12.9544512,56.7268599 C12.9544512,52.9087058 16.3635173,49.6360024 20.4543966,49.6360024 C24.5452759,49.6360024 27.954342,52.7723432 27.954342,56.7268599 L27.954342,61.0904645 C27.954342,65.0449811 24.5452759,68.181322 20.4543966,68.181322 L20.4543966,68.181322 Z M20.4543966,53.8632443 C18.5453196,53.8632443 17.0453305,55.2268708 17.0453305,56.8632225 L17.0453305,61.2268271 C17.0453305,62.8631788 18.5453196,64.2268053 20.4543966,64.2268053 C22.3634736,64.2268053 23.8634627,62.8631788 23.8634627,61.2268271 L23.8634627,56.8632225 C23.8634627,55.2268708 22.3634736,53.8632443 20.4543966,53.8632443 L20.4543966,53.8632443 Z" id="Shape" sketch:type="MSShapeGroup"></path>
                <path d="M58.3632116,34.090661 L41.4542437,23.1816495 C42.4087823,20.9998472 42.8178702,18.6816822 42.8178702,16.090792 C42.8178702,7.49994541 36.9542765,0.409087932 29.863419,0.409087932 C22.7725615,0.409087932 16.9089678,7.49994541 16.9089678,16.090792 C16.9089678,18.5453196 17.4544184,20.9998472 18.2725943,23.1816495 L1.36362644,34.090661 C0.818175863,34.4997489 0.409087932,35.1815621 0.409087932,35.8633753 L0.409087932,102.681071 C0.409087932,103.771972 1.36362644,104.726511 2.45452759,104.726511 L56.9995852,104.726511 C58.0904863,104.726511 59.0450248,103.771972 59.0450248,102.681071 L59.0450248,35.8633753 C59.3177501,35.0451995 58.9086622,34.4997489 58.3632116,34.090661 L58.3632116,34.090661 Z M21.1362098,16.090792 C21.1362098,9.68174772 25.0907265,4.49996725 29.9997817,4.49996725 C34.9088368,4.49996725 38.8633535,9.68174772 38.8633535,16.090792 C38.8633535,17.8635064 38.5906282,19.4998581 38.0451776,20.8634845 L31.0906828,16.3635173 C30.4088696,15.9544293 29.5906937,15.9544293 28.9088805,16.3635173 L21.9543857,20.8634845 C21.4089351,19.3634954 21.1362098,17.7271437 21.1362098,16.090792 L21.1362098,16.090792 Z M55.2268708,100.635631 L4.77269254,100.635631 L4.77269254,36.9542765 L22.0907483,25.7725397 L22.0907483,25.7725397 L22.0907483,25.7725397 L29.9997817,20.4543966 L35.999738,24.4089133 C35.4542874,25.0907265 34.7724742,25.7725397 34.090661,26.1816276 C32.9997598,25.3634518 31.4997707,24.8180012 29.9997817,24.8180012 C27.954342,24.8180012 26.1816276,25.7725397 24.8180012,27.1361661 C24.6816385,27.2725288 24.5452759,27.4088914 24.4089133,27.6816167 C23.5907374,28.7725179 23.1816495,30.1361443 23.1816495,31.6361334 C23.1816495,35.4542874 26.1816276,38.4542656 29.9997817,38.4542656 C33.8179357,38.4542656 36.8179139,35.4542874 36.8179139,31.6361334 C36.8179139,30.9543202 36.6815512,30.1361443 36.4088259,29.5906937 C37.4997271,28.7725179 38.5906282,27.8179794 39.4088041,26.7270782 L55.0905081,36.9542765 L55.0905081,100.635631 L55.2268708,100.635631 Z M32.7270345,31.6361334 C32.7270345,33.1361225 31.4997707,34.3633863 29.9997817,34.3633863 C28.4997926,34.3633863 27.2725288,33.1361225 27.2725288,31.6361334 L27.2725288,31.2270455 C28.0907046,31.4997707 29.0452432,31.6361334 29.9997817,31.6361334 C30.9543202,31.6361334 31.772496,31.4997707 32.7270345,31.2270455 L32.7270345,31.6361334 L32.7270345,31.6361334 Z" id="Shape" sketch:type="MSShapeGroup"></path>
            </g>
        </g>
    </g>
</svg>