<?xml version="1.0" encoding="UTF-8" standalone="no"?>
<svg width="93px" height="91px" viewBox="0 0 93 91" version="1.1" xmlns="http://www.w3.org/2000/svg" xmlns:xlink="http://www.w3.org/1999/xlink" xmlns:sketch="http://www.bohemiancoding.com/sketch/ns">
    <!-- Generator: Sketch 3.5.2 (25235) - http://www.bohemiancoding.com/sketch -->
    <title>Group</title>
    <desc>Created with Sketch.</desc>
    <defs></defs>
    <g id="About-Us" stroke="none" stroke-width="1" fill="none" fill-rule="evenodd" sketch:type="MSPage">
        <g id="About-Us---A" sketch:type="MSArtboardGroup" transform="translate(-1016.000000, -726.000000)" fill="#4888D4">
            <g id="Group" sketch:type="MSLayerGroup" transform="translate(1016.000000, 726.000000)">
                <path d="M81.5228859,66.7774545 C82.9382674,76.3169432 82.1024203,79.7304773 79.3817997,81.8389886 C77.0677797,83.629 62.0894407,84.4966023 60.3590725,84.5741591 C60.0409976,83.3549659 58.9478084,82.4480682 57.633305,82.4480682 L46.7261179,81.2299091 C45.1635367,81.2299091 43.8953549,82.5008068 43.8953549,84.072625 L43.8953549,87.4520341 C43.8953549,89.0217841 45.1635367,90.2926818 46.7261179,90.2926818 L57.633305,89.0745227 C58.8417835,89.0745227 59.8608582,88.3155 60.2695174,87.2472841 C61.9381235,87.2359091 78.0497971,87.0332273 81.6011179,83.5990114 C86.2940083,79.05625 84.9722993,76.9053409 84.4967311,65.7671477 C89.3162338,63.4197614 92.6431523,58.4664659 92.6431523,52.7241591 C92.6431523,46.7202273 89.0084526,41.5859659 83.8307298,39.3812841 C83.5702996,17.5847159 66.8585043,0 46.2752546,0 C25.6796524,0 8.96476904,17.6064318 8.71977937,39.4216136 C3.59455431,41.6480114 0,46.7564205 0,52.7241591 C0,60.3278295 5.82828365,66.5530568 13.2407652,67.1683409 C13.5701631,68.3720227 14.6582054,69.2592727 15.9572683,69.2592727 L18.5811282,69.2592727 C20.1467975,69.2592727 21.4118912,67.988375 21.4118912,66.4165568 L21.4118912,38.6191591 C21.4118912,37.0514773 20.1467975,35.7795455 18.5811282,35.7795455 L15.9572683,35.7795455 C14.5140939,35.7795455 13.3313496,36.8736136 13.1625332,38.2810114 C12.7199048,38.3192727 12.2875701,38.3813182 11.8572941,38.4578409 C12.784755,19.9724318 27.8372085,5.27386364 46.2752546,5.27386364 C64.7133006,5.27386364 79.7595779,19.9662273 80.6952738,38.4454318 C80.2927907,38.3761477 79.8913371,38.3161705 79.4806191,38.2810114 C79.3138614,36.8736136 78.1331759,35.7795455 76.685884,35.7795455 L74.0579066,35.7795455 C72.4994429,35.7795455 71.2312611,37.0514773 71.2312611,38.6191591 L71.2312611,66.4175909 C71.2312611,67.9894091 72.4994429,69.2603068 74.0579066,69.2603068 L76.685884,69.2603068 C77.9890643,69.2603068 79.0740186,68.3730568 79.4023871,67.169375 L81.5228859,66.7774545 L81.5228859,66.7774545 Z M13.128564,64.5158977 C7.22410714,63.85925 2.63003616,58.8315 2.63003616,52.7241591 C2.63003616,46.6116477 7.22410714,41.587 13.128564,40.9313864 L13.128564,64.5158977 L13.128564,64.5158977 Z M79.5145883,64.5169318 L79.5145883,40.9303523 C85.4190452,41.5880341 90.0172336,46.6116477 90.0172336,52.7241591 C90.0172336,58.8315 85.4190452,63.85925 79.5145883,64.5169318 L79.5145883,64.5169318 Z" id="Shape" sketch:type="MSShapeGroup"></path>
                <path d="M46.3215762,41.302625 C40.9112161,29.5615568 22.0634814,35.8095341 26.8541617,51.0592727 C29.4255239,58.6422614 34.6547152,62.0030568 46.3215762,70.4588182 C57.9904959,62.0030568 63.2176284,58.6412273 65.7889906,51.0592727 C70.5776122,35.8105682 51.7319362,29.5615568 46.3215762,41.302625 L46.3215762,41.302625 Z" id="Shape" sketch:type="MSShapeGroup"></path>
            </g>
        </g>
    </g>
</svg>