<?xml version="1.0" encoding="UTF-8" standalone="no"?>
<svg width="112px" height="91px" viewBox="0 0 112 91" version="1.1" xmlns="http://www.w3.org/2000/svg" xmlns:xlink="http://www.w3.org/1999/xlink" xmlns:sketch="http://www.bohemiancoding.com/sketch/ns">
    <!-- Generator: Sketch 3.5.2 (25235) - http://www.bohemiancoding.com/sketch -->
    <title>Group</title>
    <desc>Created with Sketch.</desc>
    <defs></defs>
    <g id="About-Us" stroke="none" stroke-width="1" fill="none" fill-rule="evenodd" sketch:type="MSPage">
        <g id="About-Us---A" sketch:type="MSArtboardGroup" transform="translate(-151.000000, -725.000000)" fill="#4888D4">
            <g id="Group" sketch:type="MSLayerGroup" transform="translate(150.000000, 725.000000)">
                <path d="M73.5657692,8.38153846 L70.785,8.38153846 C70.6338462,8.38153846 70.5092308,8.49692308 70.5092308,8.63769231 L70.5092308,11.6734615 L70.5092308,12.7580769 C70.5092308,14.2869231 71.76,15.0507692 73.2876923,15.0507692 L73.8438462,15.0507692 C75.3715385,15.0507692 76.6223077,14.2857692 76.6223077,12.7580769 L76.6223077,11.6734615 L76.6223077,8.63769231 C76.6223077,8.49692308 76.4976923,8.38153846 76.3465385,8.38153846 L73.5657692,8.38153846 L73.5657692,8.38153846 Z" id="Shape" sketch:type="MSShapeGroup"></path>
                <path d="M67.1734615,7.26807692 L80.5142308,7.26807692 C81.7384615,7.26807692 82.74,6.26769231 82.74,5.04576923 L82.74,2.82230769 C82.74,1.59923077 81.7384615,0.598846154 80.5142308,0.598846154 L67.1734615,0.598846154 C65.9492308,0.598846154 64.9476923,1.59923077 64.9476923,2.82230769 L64.9476923,5.04576923 C64.9476923,6.26884615 65.9492308,7.26807692 67.1734615,7.26807692 L67.1734615,7.26807692 Z" id="Shape" sketch:type="MSShapeGroup"></path>
                <path d="M78.5515385,13.1619231 C78.5515385,14.4265385 77.1796154,16.7192308 73.5657692,16.7192308 C69.9530769,16.7192308 68.58,14.2176923 68.58,13.1619231 C49.7538462,15.6069231 35.2096154,31.6926923 35.2096154,51.1869231 C35.2096154,72.3692308 52.3834615,89.5430769 73.5657692,89.5430769 C94.7503846,89.5430769 111.923077,72.3692308 111.923077,51.1857692 C111.923077,31.6926923 97.38,15.6069231 78.5515385,13.1619231 L78.5515385,13.1619231 Z M73.5657692,81.7592308 C56.6792308,81.7592308 42.9923077,68.0723077 42.9923077,51.1857692 C42.9923077,34.2992308 56.6792308,20.61 73.5657692,20.61 C90.4523077,20.61 104.139231,34.2980769 104.139231,51.1857692 C104.139231,68.0723077 90.4523077,81.7592308 73.5657692,81.7592308 L73.5657692,81.7592308 Z" id="Shape" stroke="#F2F2F2" stroke-width="2" sketch:type="MSShapeGroup"></path>
                <path d="M74.6780769,47.9411538 L74.6780769,26.7253846 L73.0119231,26.7253846 L73.0119231,47.9411538 C71.2626923,48.3242308 69.9542308,49.8796154 69.9542308,51.7407692 C69.9542308,53.8915385 71.6965385,55.6326923 73.845,55.6326923 C75.9934615,55.6326923 77.7369231,53.8915385 77.7369231,51.7407692 C77.7357692,49.8796154 76.425,48.3242308 74.6780769,47.9411538 L74.6780769,47.9411538 Z" id="Shape" sketch:type="MSShapeGroup"></path>
                <path d="M77.0515385,45.7811538 C77.0515385,45.7811538 78.0473077,46.0788462 78.7073077,46.7388462 C79.3673077,47.3976923 79.8023077,48.5319231 79.8023077,48.5319231 L86.4761538,41.8592308 L83.7276923,39.1084615 L77.0515385,45.7811538 L77.0515385,45.7811538 Z" id="Shape" sketch:type="MSShapeGroup"></path>
                <path d="M0.980769231,49.9857692 C0.980769231,51.5134615 2.23153846,52.7653846 3.76038462,52.7653846 L27.5515385,52.7653846 C29.0792308,52.7653846 30.3311538,51.5134615 30.3311538,49.9857692 L30.3311538,49.9857692 C30.3311538,48.4569231 29.0792308,47.205 27.5515385,47.205 L3.76038462,47.205 C2.23153846,47.205 0.980769231,48.4569231 0.980769231,49.9857692 L0.980769231,49.9857692 L0.980769231,49.9857692 Z" id="Shape" sketch:type="MSShapeGroup"></path>
                <path d="M17.6573077,22.1688462 C17.6573077,23.6976923 18.9080769,24.9484615 20.4369231,24.9484615 L37.6315385,24.9484615 C39.1603846,24.9484615 40.4111538,23.6976923 40.4111538,22.1688462 L40.4111538,22.1688462 C40.4111538,20.64 39.1603846,19.3892308 37.6315385,19.3892308 L20.4369231,19.3892308 C18.9080769,19.3892308 17.6573077,20.64 17.6573077,22.1688462 L17.6573077,22.1688462 L17.6573077,22.1688462 Z" id="Shape" sketch:type="MSShapeGroup"></path>
                <path d="M17.6573077,77.7565385 C17.6573077,79.2865385 18.9080769,80.5361538 20.4369231,80.5361538 L37.6315385,80.5361538 C39.1603846,80.5361538 40.4111538,79.2865385 40.4111538,77.7565385 L40.4111538,77.7565385 C40.4111538,76.2288462 39.1603846,74.9780769 37.6315385,74.9780769 L20.4369231,74.9780769 C18.9080769,74.9769231 17.6573077,76.2276923 17.6573077,77.7565385 L17.6573077,77.7565385 L17.6573077,77.7565385 Z" id="Shape" sketch:type="MSShapeGroup"></path>
                <path d="M7.09615385,64.1376923 C7.09615385,65.6653846 8.34576923,66.9161538 9.87461538,66.9161538 L30.1096154,66.9161538 C31.6373077,66.9161538 32.8880769,65.6653846 32.8880769,64.1376923 L32.8880769,64.1376923 C32.8880769,62.6088462 31.6373077,61.3580769 30.1096154,61.3580769 L9.87576923,61.3580769 C8.34576923,61.3580769 7.09615385,62.6088462 7.09615385,64.1376923 L7.09615385,64.1376923 L7.09615385,64.1376923 Z" id="Shape" sketch:type="MSShapeGroup"></path>
                <path d="M7.09615385,35.8973077 C7.09615385,37.4261538 8.34576923,38.6769231 9.87461538,38.6769231 L30.1096154,38.6769231 C31.6373077,38.6769231 32.8880769,37.4261538 32.8880769,35.8973077 L32.8880769,35.8973077 C32.8880769,34.3696154 31.6373077,33.1176923 30.1096154,33.1176923 L9.87576923,33.1176923 C8.34576923,33.1188462 7.09615385,34.3696154 7.09615385,35.8973077 L7.09615385,35.8973077 L7.09615385,35.8973077 Z" id="Shape" sketch:type="MSShapeGroup"></path>
            </g>
        </g>
    </g>
</svg>