<?xml version="1.0" encoding="UTF-8" standalone="no"?>
<svg width="47px" height="50px" viewBox="0 0 47 50" version="1.1" xmlns="http://www.w3.org/2000/svg" xmlns:xlink="http://www.w3.org/1999/xlink" xmlns:sketch="http://www.bohemiancoding.com/sketch/ns">
    <!-- Generator: Sketch 3.5.2 (25235) - http://www.bohemiancoding.com/sketch -->
    <title>job-search1 copy</title>
    <desc>Created with Sketch.</desc>
    <defs></defs>
    <g id="About-Us" stroke="none" stroke-width="1" fill="none" fill-rule="evenodd" sketch:type="MSPage">
        <g id="About-Us---A" sketch:type="MSArtboardGroup" transform="translate(-300.000000, -3132.000000)">
            <g id="job-search1-copy" sketch:type="MSLayerGroup" transform="translate(301.000000, 3132.000000)">
                <g id="Group" sketch:type="MSShapeGroup">
                    <g id="Shape">
                        <path d="M0.0009901176,9.26579265 L0.0009901176,45.4033383 C0.0009901176,47.0419105 1.33086657,48.3702433 2.97134292,48.3702433 L29.4748108,48.3702433 L29.4748108,48.3702433 L29.4748108,36.4241487 C29.4748108,34.4796392 31.0529593,32.903372 32.9997285,32.903372 L44.9596065,32.903372 L44.9596065,9.26579265 C44.9596065,7.62722047 43.6297301,6.29888765 41.9892537,6.29888765 L35.5410634,6.29888765 C34.641096,7.64650535 33.1055721,8.53618126 31.3655889,8.53618126 C30.5317119,8.53618126 29.7450139,8.33161316 29.0523277,7.97049137 L24.218029,11.1777157 C23.881884,11.400728 23.4821736,11.0013826 23.7054451,10.6656773 L26.609163,6.2989371 L2.97134292,6.2989371 C1.33081707,6.29888765 0.0009901176,7.62722047 0.0009901176,9.26579265 L0.0009901176,9.26579265 Z" stroke="#488AD6" stroke-width="2"></path>
                        <path d="M32.9997285,34.9406962 C32.1795646,34.9406962 31.5145521,35.6048873 31.5145521,36.4241487 L31.5145521,47.4130209 L31.5145521,48.3701939 L44.9601016,34.9406962 L44.1998398,34.9406962 L32.9997285,34.9406962 L32.9997285,34.9406962 L32.9997285,34.9406962 Z" fill="#498AD7"></path>
                        <path d="M29.185449,6.29888765 C29.5866941,6.61417076 30.0578416,6.84415534 30.5722572,6.96218871 C30.827361,7.02073564 31.092762,7.05272876 31.3655889,7.05272876 C32.1887727,7.05272876 32.9453711,6.7705761 33.5457784,6.29888765 C34.3677245,5.65323968 34.8960512,4.65176089 34.8960512,3.52636438 C34.8961007,1.57878905 33.3154275,0 31.3655889,0 C29.4157998,0 27.8351761,1.57878905 27.8351761,3.52636438 C27.8351761,3.79902295 27.8671569,4.06401701 27.9258214,4.31887415 C28.1091416,5.11608153 28.562665,5.80969447 29.185449,6.29888765 L29.185449,6.29888765 Z" fill="#498AD7"></path>
                    </g>
                </g>
            </g>
        </g>
    </g>
</svg>