<?xml version="1.0" encoding="UTF-8" standalone="no"?>
<svg width="91px" height="250px" viewBox="0 0 91 250" version="1.1" xmlns="http://www.w3.org/2000/svg" xmlns:xlink="http://www.w3.org/1999/xlink" xmlns:sketch="http://www.bohemiancoding.com/sketch/ns">
    <!-- Generator: Sketch 3.5.2 (25235) - http://www.bohemiancoding.com/sketch -->
    <title>Group Copy</title>
    <desc>Created with Sketch.</desc>
    <defs></defs>
    <g id="About-Us" stroke="none" stroke-width="1" fill="none" fill-rule="evenodd" sketch:type="MSPage">
        <g id="About-Us---B" sketch:type="MSArtboardGroup" transform="translate(-481.000000, -1272.000000)">
            <g id="Group-Copy" sketch:type="MSLayerGroup" transform="translate(481.356499, 1272.000000)">
                <path d="M59.6107979,94.5788936 C43.8996868,104.419249 43.3819048,84.2207621 30.6076362,94.5788936 L30.6076362,176.325243 C20.2203647,181.626062 13.0858044,192.423546 13.0858044,204.862749 C13.0858044,222.520014 27.4515487,236.885173 45.1094337,236.885173 C62.7673187,236.885173 77.1330631,222.520014 77.1330631,204.862749 C77.1330631,192.423979 69.9989361,181.626496 59.6107979,176.325243 L59.6107979,94.5788936 Z M50.2595238,201.139957 C50.2595238,196.668881 53.880532,193.043578 58.3559888,193.043578 C62.8266795,193.043578 66.4515873,196.668881 66.4515873,201.139957 C66.4515873,205.611034 62.8266795,209.236337 58.3559888,209.236337 C53.8852982,209.236337 50.2595238,205.611034 50.2595238,201.139957 Z" id="Shape" fill="#4888D4" sketch:type="MSShapeGroup"></path>
                <path d="M34.7511926,24.8593424 L59.6112312,24.8593424 C60.7546847,24.8593424 61.6827928,23.9312441 61.6827928,22.7878027 C61.6827928,21.6443613 60.7542514,20.7162631 59.6112312,20.7162631 L34.7511926,20.7162631 C33.6073059,20.7162631 32.6796311,21.6443613 32.6796311,22.7878027 C32.6791978,23.9312441 33.6073059,24.8593424 34.7511926,24.8593424 L34.7511926,24.8593424 Z" id="Shape" fill="#E4E4E4" sketch:type="MSShapeGroup"></path>
                <path d="M59.6107979,29.0028549 L47.1809953,29.0028549 C46.0375418,29.0028549 45.1094337,29.9309532 45.1094337,31.0743946 C45.1094337,32.2178359 46.0375418,33.1459342 47.1809953,33.1459342 L59.6112312,33.1459342 C60.7555513,33.1459342 61.6827928,32.2178359 61.6827928,31.0743946 C61.6823595,29.9309532 60.755118,29.0028549 59.6107979,29.0028549 L59.6107979,29.0028549 Z" id="Shape" fill="#E4E4E4" sketch:type="MSShapeGroup"></path>
                <path d="M34.7511926,41.4325261 L59.6112312,41.4325261 C60.7546847,41.4325261 61.6827928,40.5044278 61.6827928,39.3609865 C61.6827928,38.2175451 60.7542514,37.2894468 59.6112312,37.2894468 L34.7511926,37.2894468 C33.6073059,37.2894468 32.6796311,38.2175451 32.6796311,39.3609865 C32.6791978,40.5044278 33.6073059,41.4325261 34.7511926,41.4325261 L34.7511926,41.4325261 Z" id="Shape" fill="#E4E4E4" sketch:type="MSShapeGroup"></path>
                <path d="M59.6107979,45.5760387 L47.1809953,45.5760387 C46.0375418,45.5760387 45.1094337,46.504137 45.1094337,47.6475783 C45.1094337,48.7910197 46.0375418,49.719118 47.1809953,49.719118 L59.6112312,49.719118 C60.7555513,49.719118 61.6827928,48.7910197 61.6827928,47.6475783 C61.6823595,46.504137 60.755118,45.5760387 59.6107979,45.5760387 L59.6107979,45.5760387 Z" id="Shape" fill="#E4E4E4" sketch:type="MSShapeGroup"></path>
                <path d="M34.7511926,58.0057099 L59.6112312,58.0057099 C60.7546847,58.0057099 61.6827928,57.0776116 61.6827928,55.9341702 C61.6827928,54.7907289 60.755118,53.8626306 59.6112312,53.8626306 L34.7511926,53.8626306 C33.6077392,53.8626306 32.6800644,54.7907289 32.6800644,55.9341702 C32.6796311,57.0776116 33.6073059,58.0057099 34.7511926,58.0057099 L34.7511926,58.0057099 Z" id="Shape" fill="#E4E4E4" sketch:type="MSShapeGroup"></path>
                <path d="M59.6107979,62.1492225 L47.1809953,62.1492225 C46.0375418,62.1492225 45.1094337,63.0773208 45.1094337,64.2207621 C45.1094337,65.3642035 46.0375418,66.2923018 47.1809953,66.2923018 L59.6112312,66.2923018 C60.7555513,66.2923018 61.6827928,65.3642035 61.6827928,64.2207621 C61.6823595,63.0773208 60.755118,62.1492225 59.6107979,62.1492225 L59.6107979,62.1492225 Z" id="Shape" fill="#E4E4E4" sketch:type="MSShapeGroup"></path>
                <path d="M72.0410339,169.078971 L72.0410339,20.0823659 C72.0410339,7.69385684 62.781184,0 47.8729601,0 L43.3858044,0 C28.3081639,0 18.1774003,8.07124881 18.1774003,20.0823659 L18.1774003,169.078538 C7.32910768,177.262874 0.304169884,190.257117 0.304169884,204.862749 C0.304169884,229.567842 20.4036465,249.667106 45.109867,249.667106 C69.8160875,249.667106 89.9151308,229.567409 89.9151308,204.862749 C89.9151308,190.25755 82.8893265,177.262874 72.0410339,169.078971 L72.0410339,169.078971 Z M45.1094337,245.334681 C22.7568468,245.334681 4.63664093,227.214666 4.63664093,204.863183 C4.63664093,192.852932 9.86948949,182.067581 18.1774003,174.654926 C19.4855041,173.488088 20.8685671,172.404873 22.3205234,171.413082 L22.3205234,20.0823659 C22.3205234,8.31562203 33.6649335,4.1430793 43.3810382,4.1430793 L47.8677606,4.1430793 C52.5663621,4.1430793 67.8966109,5.29085351 67.8966109,20.0823659 L67.8966109,171.413515 C69.3490004,172.40444 70.7324968,173.488521 72.039734,174.65536 C80.3476448,182.066714 85.5809266,192.853365 85.5809266,204.862749 C85.5822265,227.2151 67.4615873,245.334681 45.1094337,245.334681 L45.1094337,245.334681 Z" id="Shape" fill="#E4E4E4" sketch:type="MSShapeGroup"></path>
                <path d="M34.7511926,74.6723765 L59.6112312,74.6723765 C60.7546847,74.6723765 61.6827928,73.7442783 61.6827928,72.6008369 C61.6827928,71.4573955 60.755118,70.5292972 59.6112312,70.5292972 L34.7511926,70.5292972 C33.6077392,70.5292972 32.6800644,71.4573955 32.6800644,72.6008369 C32.6796311,73.7442783 33.6073059,74.6723765 34.7511926,74.6723765 L34.7511926,74.6723765 Z" id="Shape" fill="#E4E4E4" sketch:type="MSShapeGroup"></path>
                <path d="M59.6107979,78.8158891 L47.1809953,78.8158891 C46.0375418,78.8158891 45.1094337,79.7439874 45.1094337,80.8874288 C45.1094337,82.0308701 46.0375418,82.9589684 47.1809953,82.9589684 L59.6112312,82.9589684 C60.7555513,82.9589684 61.6827928,82.0308701 61.6827928,80.8874288 C61.6823595,79.7439874 60.755118,78.8158891 59.6107979,78.8158891 L59.6107979,78.8158891 Z" id="Shape" fill="#E4E4E4" sketch:type="MSShapeGroup"></path>
            </g>
        </g>
    </g>
</svg>