<?xml version="1.0" encoding="UTF-8" standalone="no"?>
<svg width="47px" height="43px" viewBox="0 0 47 43" version="1.1" xmlns="http://www.w3.org/2000/svg" xmlns:xlink="http://www.w3.org/1999/xlink" xmlns:sketch="http://www.bohemiancoding.com/sketch/ns">
    <!-- Generator: Sketch 3.5.2 (25235) - http://www.bohemiancoding.com/sketch -->
    <title>send4 copy</title>
    <desc>Created with Sketch.</desc>
    <defs></defs>
    <g id="About-Us" stroke="none" stroke-width="1" fill="none" fill-rule="evenodd" sketch:type="MSPage">
        <g id="About-Us---A" sketch:type="MSArtboardGroup" transform="translate(-941.000000, -3147.000000)">
            <g id="send4-copy" sketch:type="MSLayerGroup" transform="translate(942.000000, 3148.000000)">
                <g id="Group" sketch:type="MSShapeGroup">
                    <path d="M1.80863041,16.1243761 C0.845246404,16.4942593 0.161736001,17.3606017 0.0253152001,18.3830545 C-0.109699201,19.4069137 0.324878402,20.4209281 1.15887361,21.0270865 L10.2892224,27.6709201 L42.7179938,2.15741761 L14.0429041,30.4077745 L26.5247041,39.4903058 C27.3179137,40.0669298 28.3431793,40.239917 29.2868737,39.9544178 C30.2291617,39.6675122 30.9801793,38.9516546 31.3177153,38.0304626 L44.670077,1.48375201 C44.8050914,1.11246241 44.7094562,0.697574403 44.4281762,0.420513602 C44.1483026,0.143452801 43.7334146,0.0562560003 43.362125,0.198302401 L1.80863041,16.1243761 L1.80863041,16.1243761 Z" id="Shape" stroke="#498BD8" stroke-width="2"></path>
                    <path d="M8.12055364,29.8803745 L8.19790564,30.3037009 L9.96996965,39.9923906 C10.1021712,40.7124674 10.5831601,41.315813 11.2526065,41.6069378 C11.9220529,41.8966562 12.6941665,41.8347746 13.3073569,41.4395762 C15.7755889,39.8475314 18.9990577,37.7351186 18.9118609,37.6113554 L8.12055364,29.8803745 L8.12055364,29.8803745 Z" id="Shape" fill="#498BD8"></path>
                </g>
            </g>
        </g>
    </g>
</svg>