<?xml version="1.0" encoding="UTF-8" standalone="no"?>
<svg width="109px" height="109px" viewBox="0 0 109 109" version="1.1" xmlns="http://www.w3.org/2000/svg" xmlns:xlink="http://www.w3.org/1999/xlink">
    <!-- Generator: Sketch 3.8.3 (29802) - http://www.bohemiancoding.com/sketch -->
    <title>Icon_cap</title>
    <desc>Created with Sketch.</desc>
    <defs></defs>
    <g id="Scholarship" stroke="none" stroke-width="1" fill="none" fill-rule="evenodd">
        <g transform="translate(-587.000000, -694.000000)" id="Group-5">
            <g transform="translate(191.000000, 695.000000)">
                <g id="Icon_cap" transform="translate(397.000000, 0.000000)">
                    <circle id="Oval-1157" stroke="#F0F1F4" fill="#FFFFFF" cx="53.5" cy="53.5" r="53.5"></circle>
                    <path d="M51.5912266,28.2651197 C50.8883364,28.2651197 50.1854461,28.3851391 49.6468492,28.6244984 L15.9443775,43.597621 L14,44.4612002 L15.9443775,45.325374 L49.6468492,60.298607 C50.7240346,60.7771558 52.4584186,60.7771558 53.5355956,60.298607 L86.5899528,45.6133186 L86.5899528,70.0781932 C85.7890508,70.5404335 85.2951174,71.3940748 85.2937068,72.3184706 C85.2945566,73.2432911 85.78866,74.0975269 86.5899528,74.5599372 L85.6177641,78.7968858 L90.1546334,78.7968858 L89.1824532,74.5593426 C89.9835506,74.0970173 90.477518,73.2431212 90.4786992,72.3184706 C90.4769997,71.39382 89.9835421,70.5399239 89.1824532,70.0775986 L89.1824532,44.4617948 L89.1807537,44.4617948 L89.1824532,44.4617948 L87.2380758,43.5982156 L53.5355956,28.625093 C52.9970071,28.3858186 52.2941168,28.2657143 51.5912266,28.2657143 L51.5912266,28.2651197 Z M28.9068626,53.6758797 L28.9068626,65.4958808 C36.5343807,78.701329 65.5330385,80.640751 74.2755821,65.5043748 L74.2755821,53.6755399 L53.5355956,62.8895144 C52.4584186,63.3681481 50.7240346,63.3681481 49.6468492,62.8895144 L28.9068626,53.6755399 L28.9068626,53.6758797 Z" id="Shape" fill="#4888D4"></path>
                </g>
            </g>
        </g>
    </g>
</svg>